<svg width="76" height="48" viewBox="0 0 76 48" fill="none" xmlns="http://www.w3.org/2000/svg">
<path d="M75.2239 37.1046L61.698 31.5257C60.2568 30.9468 60.8665 28.9468 62.4187 28.9468C66.7425 28.9468 70.124 27.3679 72.6185 24.368C74.8913 21.6838 76 18.3155 76 14.4208C76 10.5261 74.8359 7.2104 72.6185 4.4736C70.124 1.47366 66.7425 0 62.4741 0H41.7418H35.256H18.5704C12.7498 0 8.14879 2.52627 4.65645 7.57881C1.55215 12.1577 0 17.6839 0 24.2101C0 30.631 1.55215 36.1046 4.60102 40.4729C7.9825 45.3676 12.639 47.8939 18.5704 47.8939H35.256H41.7418H43.3494C44.1255 47.8939 44.1809 46.9991 44.1809 46.2623V37.8414C44.1809 37.8414 46.7863 34.3152 47.7287 34.6836L73.949 47.8939C74.8913 48.2623 75.7783 47.6307 75.7783 46.6307V38.3151C75.7783 37.8414 75.7783 37.3677 75.2239 37.1046ZM46.9526 18.9997C42.9059 18.9997 39.5244 19.9996 37.1962 22.1575C37.0853 22.3154 36.8082 22.5259 36.6973 22.6838C34.7017 25.0522 33.593 28.1048 33.593 31.8942V37.2099V37.4204H33.2604H20.3443C17.6834 37.4204 15.577 35.8941 13.9694 32.9994C12.5281 30.3679 11.8074 27.1574 11.8074 23.368C11.8074 23.368 11.8074 23.368 11.8074 23.3154V23.2627C11.8074 19.6312 12.5281 16.3681 13.9139 13.8945C15.4661 11.1051 17.628 9.47351 20.3443 9.47351H35.2006H41.6864H60.5894C61.8643 9.47351 62.8621 10.2103 63.5274 11.1577C64.1926 11.9998 64.4697 13.1577 64.4697 14.3682V14.4208V14.4734C64.4697 15.6313 64.1371 16.7892 63.5274 17.526C62.8067 18.3681 61.8089 18.9997 60.5894 18.9997H46.9526Z" fill="white"/>
</svg>
